# xmcd CD database file
#
# Track frame offsets:
#	150
#	12995
#	25862
#	38675
#	51892
#	64465
#	78620
#	90267
#	104822
#	117770
#	131375
#	145700
#	158140
#	170845
#
# Disc length: 2455 seconds
#
# Revision: 2
# Processed by: cddbd v1.4PL0 Copyright (c) Steve Scherf et al.
# Submitted via: CDex 1.50
#
DISCID=b809950e
DTITLE=Blind Boy Fuller - Sweet Honey Hole
DYEAR=1900
DGENRE=
TTITLE0=I Crave My Pigmeat
TTITLE1=Untrue Blues
TTITLE2=Painful Hearted Woman
TTITLE3=You Never Can Tell
TTITLE4=Mamie
TTITLE5=Truckin My Blues Away
TTITLE6=Jivin' Woman Blues
TTITLE7=Weeping Willow
TTITLE8=Funny Felling Blues
TTITLE9=Corrine What Makes You Treat Me So?
TTITLE10=Homesick and Lonesome Blues
TTITLE11=Meat Shakin' Woman
TTITLE12=Sweet Honey Hole
TTITLE13=Walking My Blues Troubles Away
EXTD=
EXTT0=
EXTT1=(Allen)
EXTT2=
EXTT3=(Allen)
EXTT4=(Fuller)
EXTT5=(Allen/ Long)
EXTT6=(Allen)
EXTT7=
EXTT8=
EXTT9=
EXTT10=(Allen)
EXTT11=
EXTT12=(Fuller)
EXTT13=(Fuller)
PLAYORDER=
